<?xml version="1.0" standalone="no"?>
<!DOCTYPE svg PUBLIC "-//W3C//DTD SVG 20010904//EN"
 "http://www.w3.org/TR/2001/REC-SVG-20010904/DTD/svg10.dtd">
<svg version="1.0" xmlns="http://www.w3.org/2000/svg"
 width="460.000000pt" height="460.000000pt" viewBox="0 0 460.000000 460.000000"
 preserveAspectRatio="xMidYMid meet">

<g transform="translate(0.000000,460.000000) scale(0.100000,-0.100000)"
fill="#000000" stroke="none">
<path d="M2290 4325 c0 -8 7 -15 15 -15 8 0 15 7 15 15 0 8 -7 15 -15 15 -8 0
-15 -7 -15 -15z"/>
<path d="M2115 4321 c-7 -12 12 -24 25 -16 11 7 4 25 -10 25 -5 0 -11 -4 -15
-9z"/>
<path d="M2460 4315 c0 -8 7 -15 15 -15 8 0 15 7 15 15 0 8 -7 15 -15 15 -8 0
-15 -7 -15 -15z"/>
<path d="M1940 4295 c0 -8 7 -15 15 -15 8 0 15 7 15 15 0 8 -7 15 -15 15 -8 0
-15 -7 -15 -15z"/>
<path d="M2630 4295 c0 -8 7 -15 15 -15 8 0 15 7 15 15 0 8 -7 15 -15 15 -8 0
-15 -7 -15 -15z"/>
<path d="M2804 4269 c-3 -6 -1 -16 5 -22 8 -8 11 -5 11 11 0 24 -5 28 -16 11z"/>
<path d="M1780 4255 c0 -9 5 -15 11 -13 6 2 11 8 11 13 0 5 -5 11 -11 13 -6 2
-11 -4 -11 -13z"/>
<path d="M2960 4210 c0 -13 5 -20 13 -17 6 2 12 10 12 17 0 7 -6 15 -12 18 -8
2 -13 -5 -13 -18z"/>
<path d="M1620 4205 c0 -8 7 -15 15 -15 8 0 15 7 15 15 0 8 -7 15 -15 15 -8 0
-15 -7 -15 -15z"/>
<path d="M1460 4146 c0 -9 7 -16 16 -16 9 0 14 5 12 12 -6 18 -28 21 -28 4z"/>
<path d="M3120 4145 c0 -8 7 -15 15 -15 8 0 15 7 15 15 0 8 -7 15 -15 15 -8 0
-15 -7 -15 -15z"/>
<path d="M1307 4073 c-12 -11 -8 -23 8 -23 8 0 15 7 15 15 0 16 -12 20 -23 8z"/>
<path d="M3270 4065 c0 -10 7 -15 18 -13 21 4 19 22 -2 26 -10 2 -16 -3 -16
-13z"/>
<path d="M1170 3975 c0 -8 5 -15 10 -15 6 0 10 7 10 15 0 8 -4 15 -10 15 -5 0
-10 -7 -10 -15z"/>
<path d="M2310 3921 l0 -69 108 -7 c219 -13 360 -50 561 -148 94 -45 261 -152
261 -166 0 -5 -54 -61 -120 -124 l-120 -116 -147 74 c-171 86 -294 123 -445
132 -84 5 -98 4 -98 -9 0 -12 18 -17 78 -23 153 -13 314 -58 428 -119 27 -14
52 -26 56 -26 4 0 27 -12 51 -27 l44 -26 -5 -62 c-5 -74 7 -104 71 -162 51
-48 101 -61 160 -46 38 10 39 10 69 -31 38 -51 112 -208 143 -301 27 -83 55
-239 55 -307 0 -42 3 -48 20 -48 20 0 21 4 15 63 -19 189 -54 329 -112 442
-20 39 -45 88 -56 110 -11 22 -28 52 -38 67 -11 14 -19 31 -19 36 0 5 52 65
116 131 l117 122 53 -73 c29 -40 78 -121 108 -179 112 -214 160 -381 172 -597
l7 -122 63 0 c35 0 65 4 69 9 9 15 -14 237 -36 344 -20 99 -88 305 -134 405
-41 87 -118 204 -195 295 -41 48 -76 87 -80 87 -3 0 -63 -57 -134 -126 l-128
-126 -52 51 -52 51 129 133 128 132 -23 18 c-13 10 -41 35 -63 55 -80 71 -240
167 -340 203 -27 10 -92 33 -142 53 -137 52 -373 96 -514 96 l-29 0 0 -69z
m858 -707 c26 -18 29 -60 5 -86 -30 -33 -84 -17 -98 29 -4 17 1 29 19 48 29
29 43 31 74 9z"/>
<path d="M3410 3975 c0 -8 7 -15 15 -15 8 0 15 7 15 15 0 8 -7 15 -15 15 -8 0
-15 -7 -15 -15z"/>
<path d="M3552 3874 c4 -21 22 -23 26 -1 2 10 -3 17 -13 17 -10 0 -15 -6 -13
-16z"/>
<path d="M1030 3865 c0 -9 5 -15 11 -13 6 2 11 8 11 13 0 5 -5 11 -11 13 -6 2
-11 -4 -11 -13z"/>
<path d="M2114 3790 c-248 -33 -508 -144 -714 -303 -98 -75 -244 -231 -312
-332 -53 -78 -135 -233 -176 -332 -41 -98 -79 -292 -84 -428 l-3 -80 66 -3 66
-3 12 122 c25 243 94 432 239 649 102 152 137 189 272 291 227 171 473 267
740 287 l85 7 0 65 0 65 -65 1 c-36 1 -93 -2 -126 -6z"/>
<path d="M900 3766 c0 -9 7 -16 16 -16 9 0 14 5 12 12 -6 18 -28 21 -28 4z"/>
<path d="M3680 3765 c0 -8 7 -15 15 -15 8 0 15 7 15 15 0 8 -7 15 -15 15 -8 0
-15 -7 -15 -15z"/>
<path d="M3805 3650 c-8 -13 4 -32 16 -25 12 8 12 35 0 35 -6 0 -13 -4 -16
-10z"/>
<path d="M780 3635 c0 -9 5 -15 11 -13 6 2 11 8 11 13 0 5 -5 11 -11 13 -6 2
-11 -4 -11 -13z"/>
<path d="M686 3513 c-11 -11 -6 -23 9 -23 8 0 15 4 15 9 0 13 -16 22 -24 14z"/>
<path d="M3900 3505 c0 -8 7 -15 15 -15 8 0 15 7 15 15 0 8 -7 15 -15 15 -8 0
-15 -7 -15 -15z"/>
<path d="M4000 3365 c0 -8 7 -15 15 -15 8 0 15 7 15 15 0 8 -7 15 -15 15 -8 0
-15 -7 -15 -15z"/>
<path d="M580 3355 c0 -8 7 -15 15 -15 8 0 15 7 15 15 0 8 -7 15 -15 15 -8 0
-15 -7 -15 -15z"/>
<path d="M2056 3335 c-137 -28 -211 -60 -334 -144 -194 -133 -357 -343 -420
-541 -33 -104 -56 -340 -33 -340 4 0 12 37 16 82 21 248 120 455 304 639 187
185 385 282 612 297 55 4 100 12 102 17 4 19 -128 14 -247 -10z"/>
<path d="M2310 3256 c0 -12 -10 -16 -37 -17 -34 -2 -35 -2 -8 -6 17 -2 35 -10
40 -17 6 -7 51 -18 100 -25 116 -16 251 -61 340 -113 45 -27 110 -81 181 -154
98 -97 118 -124 158 -205 58 -117 85 -210 93 -316 4 -60 10 -83 19 -83 10 0
15 -18 16 -62 l2 -63 3 55 c3 36 10 59 20 67 37 29 -10 280 -78 415 -88 174
-281 365 -448 445 -87 41 -224 78 -328 88 -63 6 -73 5 -73 -9z"/>
<path d="M4085 3230 c-11 -17 5 -32 21 -19 7 6 11 15 8 20 -7 12 -21 11 -29
-1z"/>
<path d="M500 3215 c0 -9 5 -15 11 -13 6 2 11 8 11 13 0 5 -5 11 -11 13 -6 2
-11 -4 -11 -13z"/>
<path d="M2178 3223 c12 -2 30 -2 40 0 9 3 -1 5 -23 4 -22 0 -30 -2 -17 -4z"/>
<path d="M2118 3213 c6 -2 18 -2 25 0 6 3 1 5 -13 5 -14 0 -19 -2 -12 -5z"/>
<path d="M2078 3203 c7 -3 16 -2 19 1 4 3 -2 6 -13 5 -11 0 -14 -3 -6 -6z"/>
<path d="M1962 3170 c-192 -78 -400 -276 -488 -466 -38 -81 -77 -224 -71 -257
4 -20 4 -19 6 4 2 48 51 199 87 270 47 94 117 181 222 279 88 81 168 130 284
175 35 13 56 24 48 24 -8 0 -48 -13 -88 -29z"/>
<path d="M4155 3071 c-7 -12 12 -24 25 -16 11 7 4 25 -10 25 -5 0 -11 -4 -15
-9z"/>
<path d="M430 3055 c0 -9 5 -15 11 -13 6 2 11 8 11 13 0 5 -5 11 -11 13 -6 2
-11 -4 -11 -13z"/>
<path d="M2125 3030 c-251 -66 -443 -245 -522 -485 -37 -116 -44 -288 -14
-406 55 -219 187 -385 386 -484 116 -57 203 -78 335 -78 334 -1 619 219 711
549 17 59 22 105 22 184 0 133 -20 218 -80 340 -40 80 -62 110 -138 185 -76
77 -105 98 -185 137 -52 26 -127 54 -167 62 -98 22 -259 20 -348 -4z m225
-348 c0 -213 2 -233 25 -313 13 -46 25 -87 25 -91 0 -5 -62 -8 -138 -8 l-138
0 -67 -232 c-50 -175 -64 -234 -56 -245 9 -10 67 -13 275 -13 245 0 264 1 264
18 0 9 -29 116 -65 237 -36 121 -65 223 -65 228 0 4 7 7 16 7 20 0 30 -28 100
-272 54 -192 70 -228 89 -198 3 5 -24 111 -60 236 -36 124 -65 228 -65 230 0
2 -10 4 -23 4 -19 0 -26 10 -45 73 -29 94 -38 206 -34 400 4 153 4 157 25 157
12 0 32 -3 45 -6 22 -6 22 -8 22 -183 0 -198 -14 -128 128 -616 90 -310 86
-286 59 -326 -40 -59 -42 -59 -375 -57 l-304 3 -29 33 c-19 22 -29 43 -29 65
0 28 55 226 164 591 36 118 36 121 36 302 l0 183 43 9 c23 6 72 10 110 11 l67
1 0 -228z m-200 -588 c0 -24 -60 -228 -71 -239 -6 -5 -13 -5 -20 2 -10 10 2
63 47 206 15 45 44 66 44 31z"/>
<path d="M4215 2910 c-4 -6 -3 -16 3 -22 6 -6 12 -6 17 2 4 6 3 16 -3 22 -6 6
-12 6 -17 -2z"/>
<path d="M370 2896 c0 -9 7 -16 16 -16 9 0 14 5 12 12 -6 18 -28 21 -28 4z"/>
<path d="M4260 2746 c0 -9 7 -16 16 -16 9 0 14 5 12 12 -6 18 -28 21 -28 4z"/>
<path d="M325 2741 c-7 -12 12 -24 25 -16 11 7 4 25 -10 25 -5 0 -11 -4 -15
-9z"/>
<path d="M4285 2580 c-3 -6 1 -13 10 -16 19 -8 30 0 20 15 -8 14 -22 14 -30 1z"/>
<path d="M300 2566 c0 -9 7 -16 16 -16 17 0 14 22 -4 28 -7 2 -12 -3 -12 -12z"/>
<path d="M1392 2373 c-2 -40 -6 -53 -17 -53 -20 0 -20 -51 0 -161 27 -157 76
-270 172 -396 l65 -85 -76 -77 -77 -76 -34 40 c-66 75 -128 177 -172 280 -53
127 -80 229 -95 363 -8 73 -15 102 -25 102 -30 0 -5 -217 44 -365 44 -134 123
-286 198 -378 l56 -68 -108 -114 c-59 -63 -114 -115 -121 -115 -16 0 -58 45
-126 135 -178 237 -286 522 -303 798 l-6 107 -65 0 -65 0 6 -107 c6 -114 34
-273 66 -370 80 -241 104 -292 214 -458 83 -124 321 -360 446 -444 168 -112
351 -189 571 -240 101 -24 269 -44 325 -39 l40 3 0 60 0 60 -40 2 c-271 17
-518 90 -734 219 -134 79 -271 190 -271 219 0 13 201 217 221 224 6 2 23 -8
37 -22 92 -85 286 -193 426 -236 145 -45 361 -69 361 -41 0 11 -26 17 -110 27
-111 12 -253 48 -334 84 -24 10 -48 19 -53 19 -35 0 -288 180 -288 204 0 6 33
44 73 83 l72 72 75 -61 c129 -104 281 -166 460 -187 80 -10 96 -10 105 3 6 8
22 16 35 19 24 4 24 4 -2 6 -17 0 -28 7 -28 15 0 10 -19 16 -62 21 -120 13
-232 45 -335 96 -93 46 -114 62 -218 166 -108 107 -119 121 -169 226 -58 120
-84 207 -93 318 -4 47 -10 69 -19 69 -9 0 -14 18 -17 53 l-3 52 -2 -52z"/>
<path d="M4300 2394 c0 -9 5 -14 12 -12 18 6 21 28 4 28 -9 0 -16 -7 -16 -16z"/>
<path d="M282 2388 c6 -18 28 -21 28 -4 0 9 -7 16 -16 16 -9 0 -14 -5 -12 -12z"/>
<path d="M432 2348 c-19 -19 -14 -46 12 -63 26 -17 52 -11 66 15 21 39 -46 80
-78 48z"/>
<path d="M3325 2213 c-18 -239 -127 -459 -317 -639 -180 -170 -371 -259 -601
-283 -87 -8 -107 -15 -94 -28 14 -14 258 18 335 44 98 33 132 50 242 124 160
108 311 283 387 447 36 78 69 225 80 355 5 65 4 77 -9 77 -13 0 -17 -20 -23
-97z"/>
<path d="M3403 2260 c0 -30 2 -43 4 -27 2 15 2 39 0 55 -2 15 -4 2 -4 -28z"/>
<path d="M3657 2208 c-14 -239 -113 -492 -282 -718 -83 -111 -135 -166 -201
-213 -210 -148 -371 -231 -528 -272 -55 -14 -153 -31 -218 -37 l-118 -12 0
-69 0 -70 93 7 c420 33 806 235 1069 563 196 243 328 587 328 856 l0 67 -68 0
-69 0 -6 -102z"/>
<path d="M3607 2198 c-11 -161 -53 -322 -121 -456 -68 -134 -190 -305 -277
-385 -97 -91 -97 -104 1 -17 121 107 292 378 348 550 12 36 29 99 37 140 16
76 32 260 23 260 -3 0 -8 -42 -11 -92z"/>
<path d="M3840 2266 c0 -24 3 -26 43 -26 23 0 52 -3 65 -6 19 -5 22 -2 22 20
0 25 -3 26 -49 26 -27 0 -56 3 -65 6 -12 5 -16 0 -16 -20z"/>
<path d="M4300 2235 c0 -8 7 -15 15 -15 8 0 15 7 15 15 0 8 -7 15 -15 15 -8 0
-15 -7 -15 -15z"/>
<path d="M282 2228 c6 -18 28 -21 28 -4 0 9 -7 16 -16 16 -9 0 -14 -5 -12 -12z"/>
<path d="M3391 2174 c-1 -27 -34 -170 -55 -239 -4 -11 0 -6 8 10 22 44 59 208
53 236 -4 20 -5 19 -6 -7z"/>
<path d="M3183 2098 c-13 -51 -43 -134 -70 -187 -42 -87 -59 -108 -174 -223
-118 -118 -135 -130 -231 -177 -104 -50 -182 -75 -286 -90 -45 -7 -49 -9 -21
-10 59 -2 222 45 311 89 242 119 457 400 494 645 10 72 1 52 -23 -47z"/>
<path d="M3834 2135 c-10 -25 5 -34 69 -41 53 -6 57 -5 57 14 0 16 -8 22 -42
27 -24 3 -51 9 -61 11 -10 3 -20 -1 -23 -11z"/>
<path d="M4290 2066 c0 -9 7 -16 16 -16 17 0 14 22 -4 28 -7 2 -12 -3 -12 -12z"/>
<path d="M300 2055 c0 -8 7 -15 15 -15 8 0 15 7 15 15 0 8 -7 15 -15 15 -8 0
-15 -7 -15 -15z"/>
<path d="M3816 1994 c-3 -9 -6 -17 -6 -20 0 -2 25 -11 56 -20 47 -13 58 -14
65 -3 15 23 11 27 -45 43 -66 19 -63 19 -70 0z"/>
<path d="M4266 1903 c-11 -11 -6 -23 9 -23 8 0 15 4 15 9 0 13 -16 22 -24 14z"/>
<path d="M330 1886 c0 -9 7 -16 16 -16 9 0 14 5 12 12 -6 18 -28 21 -28 4z"/>
<path d="M3787 1874 c-17 -17 -4 -35 40 -54 26 -11 53 -18 60 -16 27 11 11 34
-34 52 -27 11 -50 20 -54 22 -3 1 -8 -1 -12 -4z"/>
<path d="M3297 1835 c-96 -202 -347 -440 -559 -531 -29 -13 -45 -23 -36 -24 9
0 45 15 80 33 194 102 349 242 467 421 60 93 82 136 68 136 -2 0 -11 -16 -20
-35z"/>
<path d="M520 1840 c0 -5 5 -10 10 -10 6 0 10 5 10 10 0 6 -4 10 -10 10 -5 0
-10 -4 -10 -10z"/>
<path d="M540 1780 c0 -5 5 -10 10 -10 6 0 10 5 10 10 0 6 -4 10 -10 10 -5 0
-10 -4 -10 -10z"/>
<path d="M3736 1744 c-3 -9 -6 -18 -6 -20 0 -9 104 -53 112 -48 20 13 4 36
-42 59 -58 30 -56 29 -64 9z"/>
<path d="M4217 1743 c-12 -11 -8 -23 8 -23 8 0 15 7 15 15 0 16 -12 20 -23 8z"/>
<path d="M370 1725 c0 -8 7 -15 15 -15 8 0 15 7 15 15 0 8 -7 15 -15 15 -8 0
-15 -7 -15 -15z"/>
<path d="M565 1721 c-3 -5 -1 -12 5 -16 5 -3 10 1 10 9 0 18 -6 21 -15 7z"/>
<path d="M580 1650 c0 -5 7 -10 15 -10 8 0 15 5 15 10 0 6 -7 10 -15 10 -8 0
-15 -4 -15 -10z"/>
<path d="M3676 1614 c-4 -9 -5 -18 -4 -19 30 -23 102 -56 113 -51 27 10 15 31
-35 59 -58 32 -66 33 -74 11z"/>
<path d="M610 1585 c0 -9 5 -15 11 -13 6 2 11 8 11 13 0 5 -5 11 -11 13 -6 2
-11 -4 -11 -13z"/>
<path d="M432 1566 c1 -10 8 -17 13 -17 15 1 12 24 -3 29 -9 3 -13 -2 -10 -12z"/>
<path d="M4160 1564 c0 -9 5 -14 12 -12 18 6 21 28 4 28 -9 0 -16 -7 -16 -16z"/>
<path d="M646 1533 c-11 -11 -6 -23 9 -23 8 0 15 4 15 9 0 13 -16 22 -24 14z"/>
<path d="M3607 1496 c-6 -15 6 -28 61 -66 30 -20 35 -21 49 -7 14 14 10 19
-33 51 -54 39 -69 43 -77 22z"/>
<path d="M672 1459 c2 -6 8 -10 13 -10 5 0 11 4 13 10 2 6 -4 11 -13 11 -9 0
-15 -5 -13 -11z"/>
<path d="M500 1405 c0 -8 7 -15 15 -15 8 0 15 7 15 15 0 8 -7 15 -15 15 -8 0
-15 -7 -15 -15z"/>
<path d="M4090 1410 c0 -5 5 -10 10 -10 6 0 10 5 10 10 0 6 -4 10 -10 10 -5 0
-10 -4 -10 -10z"/>
<path d="M707 1404 c-8 -8 1 -24 14 -24 5 0 9 7 9 15 0 15 -12 20 -23 9z"/>
<path d="M3529 1384 c-11 -13 -8 -19 17 -40 64 -54 74 -58 90 -42 13 13 9 19
-35 56 -27 23 -52 42 -54 42 -3 0 -10 -7 -18 -16z"/>
<path d="M740 1335 c0 -9 5 -15 11 -13 6 2 11 8 11 13 0 5 -5 11 -11 13 -6 2
-11 -4 -11 -13z"/>
<path d="M770 1280 c0 -5 7 -10 15 -10 8 0 15 5 15 10 0 6 -7 10 -15 10 -8 0
-15 -4 -15 -10z"/>
<path d="M3444 1279 c-3 -6 13 -31 37 -55 39 -40 45 -43 59 -28 13 14 11 19
-27 55 -44 41 -57 46 -69 28z"/>
<path d="M3045 1234 c-145 -95 -294 -158 -463 -195 -61 -13 -72 -18 -36 -14
95 10 208 45 324 101 101 49 250 138 250 150 0 7 -2 6 -75 -42z"/>
<path d="M4006 1271 c-4 -5 -2 -12 3 -15 5 -4 12 -2 15 3 4 5 2 12 -3 15 -5 4
-12 2 -15 -3z"/>
<path d="M590 1260 c0 -5 7 -10 15 -10 8 0 15 5 15 10 0 6 -7 10 -15 10 -8 0
-15 -4 -15 -10z"/>
<path d="M2550 1254 c-30 -8 -95 -18 -145 -23 -82 -7 -85 -8 -30 -9 55 -2 240
30 253 42 8 9 -17 5 -78 -10z"/>
<path d="M816 1243 c-11 -11 -6 -23 9 -23 8 0 15 4 15 9 0 13 -16 22 -24 14z"/>
<path d="M3352 1198 c-18 -18 -15 -29 27 -78 34 -38 41 -43 55 -31 14 12 14
16 -4 40 -53 70 -66 81 -78 69z"/>
<path d="M850 1175 c0 -8 7 -15 15 -15 8 0 15 7 15 15 0 8 -7 15 -15 15 -8 0
-15 -7 -15 -15z"/>
<path d="M684 1129 c-10 -17 13 -36 27 -22 12 12 4 33 -11 33 -5 0 -12 -5 -16
-11z"/>
<path d="M902 1126 c1 -10 8 -17 13 -17 15 1 12 24 -3 29 -9 3 -13 -2 -10 -12z"/>
<path d="M3900 1125 c0 -8 7 -15 15 -15 8 0 15 7 15 15 0 8 -7 15 -15 15 -8 0
-15 -7 -15 -15z"/>
<path d="M3245 1100 c-9 -14 56 -109 74 -110 19 0 7 52 -21 90 -22 31 -42 38
-53 20z"/>
<path d="M944 1079 c-10 -17 13 -36 27 -22 12 12 4 33 -11 33 -5 0 -12 -5 -16
-11z"/>
<path d="M995 1030 c-7 -12 2 -30 16 -30 5 0 9 9 9 20 0 21 -15 27 -25 10z"/>
<path d="M3134 1017 c-4 -12 39 -102 55 -111 4 -3 13 -1 21 4 13 8 10 18 -14
65 -27 53 -51 69 -62 42z"/>
<path d="M2383 1013 c20 -2 54 -2 75 0 20 2 3 4 -38 4 -41 0 -58 -2 -37 -4z"/>
<path d="M3805 1000 c-7 -12 2 -30 16 -30 12 0 12 27 0 35 -5 3 -12 1 -16 -5z"/>
<path d="M785 989 c-10 -15 1 -23 20 -15 9 3 13 10 10 16 -8 13 -22 13 -30 -1z"/>
<path d="M1045 980 c-7 -12 2 -30 16 -30 5 0 9 9 9 20 0 21 -15 27 -25 10z"/>
<path d="M3014 946 c-6 -15 41 -116 54 -116 4 0 13 4 20 9 11 6 7 20 -14 64
-28 56 -49 71 -60 43z"/>
<path d="M1095 930 c-3 -6 1 -13 10 -16 19 -8 30 0 20 15 -8 14 -22 14 -30 1z"/>
<path d="M1154 886 c-8 -22 3 -33 18 -18 9 9 9 15 0 24 -9 9 -13 7 -18 -6z"/>
<path d="M2886 892 c-9 -14 36 -122 51 -122 23 0 25 24 6 76 -17 45 -44 67
-57 46z"/>
<path d="M905 870 c-10 -17 12 -37 25 -24 8 8 6 15 -4 23 -10 9 -16 9 -21 1z"/>
<path d="M3685 869 c-10 -15 1 -23 20 -15 9 3 13 10 10 16 -8 13 -22 13 -30
-1z"/>
<path d="M1205 841 c-7 -12 12 -24 25 -16 11 7 4 25 -10 25 -5 0 -11 -4 -15
-9z"/>
<path d="M2764 833 c2 -10 10 -37 17 -61 8 -27 17 -42 26 -40 17 4 16 0 7 66
-6 47 -9 52 -31 52 -18 0 -23 -4 -19 -17z"/>
<path d="M2641 811 c-20 -13 6 -123 28 -119 17 4 20 50 7 101 -7 29 -13 32
-35 18z"/>
<path d="M1260 795 c0 -8 5 -15 10 -15 6 0 10 7 10 15 0 8 -4 15 -10 15 -5 0
-10 -7 -10 -15z"/>
<path d="M2497 743 c6 -66 9 -73 34 -73 17 0 20 4 15 23 -3 12 -6 39 -6 60 0
32 -3 37 -24 37 -22 0 -23 -3 -19 -47z"/>
<path d="M2360 714 c0 -57 2 -65 18 -62 14 3 18 16 20 66 3 57 1 62 -18 62
-18 0 -20 -6 -20 -66z"/>
<path d="M1315 760 c3 -5 10 -10 16 -10 5 0 9 5 9 10 0 6 -7 10 -16 10 -8 0
-12 -4 -9 -10z"/>
<path d="M3557 764 c-8 -8 1 -24 14 -24 5 0 9 7 9 15 0 15 -12 20 -23 9z"/>
<path d="M1035 750 c3 -5 10 -10 16 -10 5 0 9 5 9 10 0 6 -7 10 -16 10 -8 0
-12 -4 -9 -10z"/>
<path d="M1376 743 c-11 -11 -6 -23 9 -23 8 0 15 4 15 9 0 13 -16 22 -24 14z"/>
<path d="M1432 699 c2 -6 8 -10 13 -10 5 0 11 4 13 10 2 6 -4 11 -13 11 -9 0
-15 -5 -13 -11z"/>
<path d="M1500 665 c0 -8 5 -15 10 -15 6 0 10 7 10 15 0 8 -4 15 -10 15 -5 0
-10 -7 -10 -15z"/>
<path d="M1177 664 c-8 -8 1 -24 14 -24 5 0 9 7 9 15 0 15 -12 20 -23 9z"/>
<path d="M3415 661 c-7 -12 12 -24 25 -16 11 7 4 25 -10 25 -5 0 -11 -4 -15
-9z"/>
<path d="M1560 641 c0 -6 5 -13 10 -16 6 -3 10 1 10 9 0 9 -4 16 -10 16 -5 0
-10 -4 -10 -9z"/>
<path d="M1630 610 c0 -5 5 -10 10 -10 6 0 10 5 10 10 0 6 -4 10 -10 10 -5 0
-10 -4 -10 -10z"/>
<path d="M1316 573 c-11 -11 -6 -23 9 -23 8 0 15 4 15 9 0 13 -16 22 -24 14z"/>
<path d="M3280 566 c0 -9 7 -16 16 -16 17 0 14 22 -4 28 -7 2 -12 -3 -12 -12z"/>
<path d="M1760 560 c0 -5 5 -10 10 -10 6 0 10 5 10 10 0 6 -4 10 -10 10 -5 0
-10 -4 -10 -10z"/>
<path d="M2279 509 c-16 -31 3 -69 35 -69 23 0 46 24 46 49 0 16 -30 41 -50
41 -11 0 -24 -10 -31 -21z"/>
<path d="M1470 486 c0 -9 7 -16 16 -16 9 0 14 5 12 12 -6 18 -28 21 -28 4z"/>
<path d="M3122 488 c6 -18 28 -21 28 -4 0 9 -7 16 -16 16 -9 0 -14 -5 -12 -12z"/>
<path d="M2966 433 c-11 -11 -6 -23 9 -23 8 0 15 4 15 9 0 13 -16 22 -24 14z"/>
<path d="M1632 419 c2 -6 8 -10 13 -10 5 0 11 4 13 10 2 6 -4 11 -13 11 -9 0
-15 -5 -13 -11z"/>
<path d="M1790 365 c0 -8 5 -15 10 -15 6 0 10 7 10 15 0 8 -4 15 -10 15 -5 0
-10 -7 -10 -15z"/>
<path d="M2810 370 c0 -5 5 -10 10 -10 6 0 10 5 10 10 0 6 -4 10 -10 10 -5 0
-10 -4 -10 -10z"/>
<path d="M1960 335 c0 -8 5 -15 10 -15 6 0 10 7 10 15 0 8 -4 15 -10 15 -5 0
-10 -7 -10 -15z"/>
<path d="M2640 335 c0 -9 5 -15 11 -13 6 2 11 8 11 13 0 5 -5 11 -11 13 -6 2
-11 -4 -11 -13z"/>
<path d="M2467 323 c-12 -11 -8 -23 8 -23 8 0 15 7 15 15 0 16 -12 20 -23 8z"/>
<path d="M2132 309 c2 -6 8 -10 13 -10 5 0 11 4 13 10 2 6 -4 11 -13 11 -9 0
-15 -5 -13 -11z"/>
<path d="M2300 305 c0 -8 5 -15 10 -15 6 0 10 7 10 15 0 8 -4 15 -10 15 -5 0
-10 -7 -10 -15z"/>
</g>
</svg>
